<svg xmlns="http://www.w3.org/2000/svg" xmlns:xlink="http://www.w3.org/1999/xlink" viewBox="0 0 64 64" id="social-media">
  <defs>
    <linearGradient id="c" x1="47.5" x2="47.5" y1="18" y2="50" gradientUnits="userSpaceOnUse">
      <stop offset="0" stop-color="#42bfff"></stop>
      <stop offset="1" stop-color="#1174ac"></stop>
    </linearGradient>
    <linearGradient id="d" x1="40" x2="40" y1="28.5" y2="44.9" gradientUnits="userSpaceOnUse">
      <stop offset="0" stop-color="#137dbf"></stop>
      <stop offset="1" stop-color="#02476c"></stop>
    </linearGradient>
    <linearGradient id="b" x1="30.5" x2="30.5" y1="61" y2="30" gradientUnits="userSpaceOnUse">
      <stop offset="0" stop-color="#002237"></stop>
      <stop offset="1" stop-color="#003352"></stop>
    </linearGradient>
    <linearGradient id="a" x1="20.5" x2="20.5" y1="3" y2="34" gradientUnits="userSpaceOnUse">
      <stop offset="0" stop-color="#d6d6d6"></stop>
      <stop offset="1" stop-color="#a1a1a1"></stop>
    </linearGradient>
    <linearGradient xlink:href="#a" id="e" x1="31" x2="31" y1="36" y2="51"></linearGradient>
    <linearGradient xlink:href="#b" id="f" x1="47.5" x2="47.5" y1="38" y2="25"></linearGradient>
    <linearGradient id="g" x1="20.5" x2="20.5" y1="10.26" y2="24.74" gradientUnits="userSpaceOnUse">
      <stop offset="0" stop-color="#ff4d6c"></stop>
      <stop offset="1" stop-color="#ff0825"></stop>
    </linearGradient>
  </defs>
  <path fill="url(#c)" d="M61 31.5a13.5 13.5 0 0 0-27 0 1 1 0 0 0 .18.57l8.11 11.71a1 1 0 0 0 .47.36 13.29 13.29 0 0 0 6.05.79 7.89 7.89 0 0 0 6 5A1 1 0 0 0 56 48.76a18.49 18.49 0 0 1-.31-6.51A13.55 13.55 0 0 0 61 31.5Z"></path>
  <path fill="url(#d)" d="M34.35 28.5a13.53 13.53 0 0 0-.35 3 1 1 0 0 0 .18.57l8.11 11.71a1 1 0 0 0 .47.36 13.08 13.08 0 0 0 3.17.76 15.49 15.49 0 0 0-11.58-16.4Z"></path>
  <path fill="url(#b)" d="M30.5 30a13.49 13.49 0 0 0-9.14 23.42 18.69 18.69 0 0 1-.36 6.34A1 1 0 0 0 22.22 61a7.9 7.9 0 0 0 5.61-4.26A13.49 13.49 0 1 0 30.5 30Z"></path>
  <path fill="url(#a)" d="M20.5 3a13.49 13.49 0 0 0-9.14 23.42 18.69 18.69 0 0 1-.36 6.34A1 1 0 0 0 12.22 34a7.9 7.9 0 0 0 5.61-4.26A13.49 13.49 0 1 0 20.5 3Z"></path>
  <path fill="url(#e)" d="M35 38v-2h-7a1 1 0 0 0-1 1v14h2v-7h4v-2h-4v-4Z"></path>
  <path fill="url(#f)" d="M49 33v1.5a1.5 1.5 0 0 1-3 0V30h4v-2h-4v-3h-2v9.5a3.5 3.5 0 0 0 7 0V33Z"></path>
  <path fill="url(#g)" d="M26.86 11.72a5 5 0 0 0-6.36-.59 5 5 0 0 0-6.36 7.66l5.65 5.66a1 1 0 0 0 1.42 0l5.65-5.66a5 5 0 0 0 0-7.07Z"></path>
</svg>
