<svg xmlns="http://www.w3.org/2000/svg"  viewBox="0 0 100 100" width="100px" height="100px"><path d="M52,95.5c-22.112,0-38.162-15.859-38.162-37.709c0-11.923,7.392-24.474,17.976-30.521c0.987-0.561,2.099-0.855,3.225-0.855 c4.025,0,7.178,3.054,7.178,6.953c0,0.58,0.113,1.551,0.334,2.636c5.815-4.698,6.078-12.896,5.06-19.518 c-0.05-0.318-0.076-0.654-0.076-0.987c0-2.491,1.216-4.732,3.252-5.993c1.063-0.658,2.283-1.006,3.529-1.006 c1.049,0,2.109,0.251,3.066,0.727c7.676,3.777,32.779,18.484,32.779,48.791C90.162,79.035,73.399,95.5,52,95.5z" opacity=".35"/><path fill="#f2f2f2" d="M50,93.5c-22.112,0-38.162-15.859-38.162-37.709c0-11.923,7.392-24.474,17.976-30.521 c0.987-0.561,2.099-0.855,3.225-0.855c4.025,0,7.178,3.054,7.178,6.953c0,0.58,0.113,1.551,0.334,2.636 c5.815-4.698,6.078-12.896,5.06-19.518c-0.05-0.318-0.076-0.654-0.076-0.987c0-2.491,1.216-4.732,3.252-5.993 c1.063-0.658,2.283-1.006,3.529-1.006c1.049,0,2.109,0.251,3.066,0.727c7.676,3.777,32.779,18.484,32.779,48.791 C88.162,77.035,71.399,93.5,50,93.5z"/><path fill="#d84178" d="M37.335,42.899c14.248-4.524,16.509-17.639,14.7-29.401c0,0,0-0.678,0.453-0.453 c13.795,6.787,29.173,21.035,29.173,42.97C81.662,72.3,68.772,87,50,87c-20.355,0-31.662-14.248-31.662-31.209 c0-10.176,6.785-20.355,14.7-24.877c0,0,0.678,0,0.678,0.453c0,2.261,0.905,7.915,3.392,11.307L37.335,42.899z"/><path fill="#40396e" d="M50,88.5c-19.525,0-33.162-13.45-33.162-32.709c0-10.053,6.5-21.062,15.456-26.18 c0.227-0.129,0.483-0.197,0.744-0.197c1.242,0,2.178,0.84,2.178,1.953c0,2.008,0.787,6.711,2.661,9.764 c13.887-5.054,13.927-19.262,12.675-27.405c-0.012-0.075-0.018-0.151-0.018-0.228c0-0.28,0.064-1.234,0.885-1.743 c0.522-0.323,1.155-0.341,1.736-0.052c7.034,3.461,30.004,16.894,30.004,44.313C83.162,74.231,68.595,88.5,50,88.5z M32.328,33.126 c-6.422,4.366-12.489,13.137-12.489,22.665C19.838,70.579,29.165,85.5,50,85.5c18.88,0,30.162-14.99,30.162-29.483 c0-23.527-18.193-36.132-26.361-40.598c1.033,9.475-0.248,23.904-16.011,28.91c-0.532,0.166-1.114,0.028-1.51-0.364l-0.228-0.226 c-0.056-0.056-0.107-0.115-0.154-0.179C33.662,40.51,32.642,35.995,32.328,33.126z M51.826,14.392 c0.002,0.001,0.005,0.003,0.007,0.004C51.831,14.395,51.829,14.393,51.826,14.392z"/></svg>